<svg id="Livello_1" data-name="Livello 1" xmlns="http://www.w3.org/2000/svg" viewBox="0 0 1080 1080">
  <g>
    <g>
      <g>
        <path d="M329.92,337.19a84.47,84.47,0,0,0,113.16,79c-1,0-1.92.06-2.88.07a79.58,79.58,0,0,1-.71-159.16c1,0,1.93,0,2.88.05a84.46,84.46,0,0,0-112.45,80Z"/>
        <path d="M432,273.81a53,53,0,0,0-48.31,71.8c0-.6-.06-1.2-.07-1.8a49.9,49.9,0,1,1,99.77-2.18c0,.61,0,1.21,0,1.82A53,53,0,0,0,432,273.81Z"/>
        <path d="M654.65,403.37c-4.46-5.44-20.61-23.8-45.19-29.46-12.29-2.94-26.69-2.72-42.75,1.33-16.07,3.85-33.8,11.55-52.75,18.92-37.91,16.71-67,16.9-88.7,5.62-21.72-10.6-30.86-24.3-38.82-36.57-4.51-6.95,6.8,8.68,32.77,17.8,13,4.72,28.51,5.95,45.46,2.21,17-3.41,35.34-11.78,54.11-18.67s37-13.07,53.84-13.36a76.63,76.63,0,0,1,44.91,12.95C643.1,380.76,658.46,409.46,654.65,403.37Z"/>
        <path d="M455.07,335.1a23.35,23.35,0,0,0-23.36,23.35,23.35,23.35,0,0,0-23.35-23.35,23.36,23.36,0,0,0,23.35-23.36A23.36,23.36,0,0,0,455.07,335.1Z" fill="#8e94f2"/>
      </g>
      <g>
        <path d="M166.41,718.67H143.05V440.5h22.82l91.82,172q2.85,5.56,6.38,5.57c2.18,0,4.21-1.95,6.11-5.84L350.59,440.5h25.54V718.67H352.77V470.79a12.83,12.83,0,0,0-1-5.5c-.63-1.31-1.44-2-2.44-2-1.54,0-3.08,1.5-4.62,4.48q-2.17,3.94-24,50.46T278.2,609.33l-20.78,44.55q-95.49-179.14-99.7-186.08c-1.54-3-3.17-4.48-4.89-4.48q-1.5,0-2.37,2a12.57,12.57,0,0,0-.75,5.43Z"/>
        <path d="M420.54,718.67V440.5h22.28V718.67Z"/>
        <path d="M487.23,718.67V440.5H615.18a116,116,0,0,1,27.1,3,83.47,83.47,0,0,1,21.18,7.88A73,73,0,0,1,679.08,463a67.19,67.19,0,0,1,11.07,13.86,84.71,84.71,0,0,1,7,15.07,82.06,82.06,0,0,1,3.8,14.74,88.74,88.74,0,0,1,1,13.18,87.29,87.29,0,0,1-1,13.1,80.81,80.81,0,0,1-3.8,14.6,82.85,82.85,0,0,1-7,14.94,68.22,68.22,0,0,1-11.07,13.79,73,73,0,0,1-15.62,11.61,85.37,85.37,0,0,1-21.18,8,117.84,117.84,0,0,1-27.1,3.19h-8a14.86,14.86,0,0,0-4.49.48c-.9.31-1.27.81-1.08,1.49a6,6,0,0,0,1.56,2.38,42,42,0,0,0,4,3.53,124.43,124.43,0,0,1,15.21,14.67q8.28,9.24,14.46,17.25t17.86,23.63c.46.64.84,1.16,1.16,1.56l1.15,1.5c.45.59.86,1.15,1.23,1.69a253,253,0,0,0,26.62,30.5q14.52,14.19,24.85,21H678.34a91.62,91.62,0,0,1-17.12-14.06,222.44,222.44,0,0,1-17.65-20.1q-8.43-10.8-17.39-22.82t-17.52-23q-8.55-11-16.64-20a86.62,86.62,0,0,0-16.16-14.33Q567.78,599,561,599H536.13v-5.57h54.6q41.16,0,63-19.49t21.8-54.12q0-34.65-21.8-54.2t-63-19.56H523.91q-8.16,0-11.41,3.4t-3.26,14.12l.27,255.08Z"/>
        <path d="M745.3,718.67H720.85l94.81-265.13-5.84-13H834.4l124,278.17H934l-20.38-45.36q-6.51-14.67-21.39-26.15a108.83,108.83,0,0,0-32.12-17.25,104.62,104.62,0,0,0-33.28-5.77q-27.57,0-51.47,17.25-4.49,3.25-8.9,10.8a60.7,60.7,0,0,0-6.32,14.46Zm30.29-105.4q-2,7.47,1.49,7.47c1.18,0,3.21-.72,6.11-2.17a72.08,72.08,0,0,1,35.32-9,97.72,97.72,0,0,1,38.1,8.08,147.48,147.48,0,0,1,35.92,21.66c3.17,2.63,5.16,3.62,6,3s.36-2.81-1.36-6.52L825.43,475q-2.45-5.83-5.29-5.84c-2,0-3.67,2.22-5,6.66Z"/>
      </g>
    </g>
    <g/>
  </g>
</svg>
