<svg id="Livello_1" data-name="Livello 1" xmlns="http://www.w3.org/2000/svg" viewBox="0 0 1080 1080">
  <g>
    <g>
      <g>
        <path d="M711.88,190.82a107.89,107.89,0,0,1-144.5,100.91c1.22,0,2.44.08,3.67.08A101.63,101.63,0,0,0,572,88.56c-1.23,0-2.46,0-3.69,0A107.87,107.87,0,0,1,711.88,190.82Z" fill="#fff"/>
        <path d="M581.55,110.45a67.64,67.64,0,0,1,61.7,91.69c0-.76.07-1.53.09-2.3a63.73,63.73,0,0,0-127.42-2.78q0,1.16,0,2.31a67.62,67.62,0,0,1,65.63-88.92Z" fill="#fff"/>
        <path d="M297.18,275.9c5.69-6.94,26.32-30.39,57.71-37.62,15.7-3.75,34.08-3.48,54.6,1.7,20.51,4.92,43.16,14.74,67.37,24.16,48.41,21.34,85.55,21.58,113.27,7.18,27.73-13.54,39.41-31,49.58-46.7,5.76-8.88-8.68,11.09-41.85,22.72-16.59,6-36.42,7.6-58.06,2.83-21.66-4.35-45.13-15-69.1-23.85s-47.3-16.68-68.76-17.06c-21.45-.77-41,5.86-57.36,16.55C311.93,247,292.31,283.68,297.18,275.9Z" fill="#fff"/>
        <path d="M552.06,188.71a29.82,29.82,0,0,1,29.83,29.83,29.83,29.83,0,0,1,29.83-29.83,29.83,29.83,0,0,1-29.83-29.83A29.82,29.82,0,0,1,552.06,188.71Z" fill="#8e94f2"/>
      </g>
      <g>
        <path d="M323.54,606.4h-24V321.28H323l94.11,176.25q2.93,5.72,6.55,5.71,3.35,0,6.26-6l82.42-176h26.17V606.4H514.55V352.33a13.25,13.25,0,0,0-1-5.64c-.65-1.34-1.48-2-2.5-2q-2.37,0-4.74,4.6-2.22,4-24.57,51.72t-43.64,93.34L416.82,540Q318.95,356.37,314.63,349.27q-2.37-4.61-5-4.6c-1,0-1.83.7-2.44,2.09a12.86,12.86,0,0,0-.76,5.57Z" fill="#fff"/>
        <path d="M584,606.4V321.28h22.83V606.4Z" fill="#fff"/>
        <path d="M296.44,901.26V655.54h113a102.77,102.77,0,0,1,23.93,2.64,73.83,73.83,0,0,1,18.72,7,64.5,64.5,0,0,1,13.8,10.26,60.24,60.24,0,0,1,9.77,12.24A74.74,74.74,0,0,1,481.86,701a71.67,71.67,0,0,1,3.36,13,78.45,78.45,0,0,1,.9,11.64,77.26,77.26,0,0,1-.9,11.58,70.9,70.9,0,0,1-3.36,12.9,73.2,73.2,0,0,1-6.18,13.19,61.07,61.07,0,0,1-9.77,12.18,64.5,64.5,0,0,1-13.8,10.26,75.34,75.34,0,0,1-18.72,7,104.13,104.13,0,0,1-23.93,2.82h-7.08a13.21,13.21,0,0,0-4,.42q-1.2.42-1,1.32a5.33,5.33,0,0,0,1.38,2.1,37.18,37.18,0,0,0,3.54,3.12,109.9,109.9,0,0,1,13.44,13q7.31,8.16,12.77,15.24t15.78,20.88q.6.84,1,1.38l1,1.32q.6.78,1.08,1.5A225.39,225.39,0,0,0,471,882.72q12.83,12.54,21.95,18.54H465.25a81.3,81.3,0,0,1-15.12-12.42,198,198,0,0,1-15.6-17.76q-7.44-9.54-15.35-20.15T403.7,830.59Q396.14,820.87,389,813a76.51,76.51,0,0,0-14.28-12.65q-7.14-4.74-13.13-4.74h-22v-4.92h48.23q36.36,0,55.61-17.22t19.26-47.81q0-30.6-19.26-47.87t-55.61-17.28h-59q-7.2,0-10.08,3t-2.87,12.48l.24,225.32Z" fill="#fff"/>
        <path d="M524.39,901.26H502.8l83.74-234.2-5.16-11.52H603.1L712.64,901.26H691l-18-40.08q-5.76-12.95-18.9-23.09a96.23,96.23,0,0,0-28.37-15.24,92.48,92.48,0,0,0-29.4-5.1q-24.36,0-45.47,15.24-4,2.88-7.86,9.54a53.57,53.57,0,0,0-5.58,12.78Zm26.76-93.1q-1.8,6.58,1.32,6.59,1.56,0,5.4-1.92a63.65,63.65,0,0,1,31.19-7.91,86.49,86.49,0,0,1,33.66,7.13,130.18,130.18,0,0,1,31.73,19.14q4.2,3.48,5.28,2.64t-1.2-5.76L595.18,686q-2.16-5.16-4.68-5.16t-4.44,5.88Z" fill="#fff"/>
      </g>
    </g>
    <g>
      <path d="M748.59,351.91h-3.1V320h48V351.3h-3.1V323.4H771.49v24.39h-3V323.4H748.59Z" fill="#fff"/>
      <path d="M745.49,383l35-14.65v3.58l-31.48,12.9,31.48,13v3.37l-35-14.65Z" fill="#fff"/>
      <path d="M744.81,435.05a16.34,16.34,0,0,1,1.45-6.89,16.89,16.89,0,0,1,4-5.5,18.53,18.53,0,0,1,5.85-3.65,18.94,18.94,0,0,1,7-1.32,18.37,18.37,0,0,1,9,2.23,17.67,17.67,0,0,1,6.5,6.15,16.25,16.25,0,0,1,2.45,8.78,16,16,0,0,1-2.49,8.85,18.33,18.33,0,0,1-6.56,6.11,18.06,18.06,0,0,1-8.92,2.26h-.81a2.55,2.55,0,0,1-.67-.07V421.21a15.64,15.64,0,0,0-7.19,2.22,14.77,14.77,0,0,0-5.08,5,12.78,12.78,0,0,0-1.85,6.72,13.41,13.41,0,0,0,1.9,6.89,10.44,10.44,0,0,0,4.86,4.52l-.81,3a11.86,11.86,0,0,1-4.46-3.21,16.11,16.11,0,0,1-3.07-5.13A17.14,17.14,0,0,1,744.81,435.05Zm19.45-14v27.76a15.92,15.92,0,0,0,7.26-2.16,14,14,0,0,0,5-5,13.09,13.09,0,0,0,1.81-6.78,12.94,12.94,0,0,0-1.81-6.76,14.09,14.09,0,0,0-5-4.93A15.92,15.92,0,0,0,764.26,421.07Z" fill="#fff"/>
      <path d="M745.49,501.71v-3.37H765c4.49,0,7.77-.65,9.86-1.93A6.65,6.65,0,0,0,778,490.3a13.12,13.12,0,0,0-1.42-5.84,15.77,15.77,0,0,0-3.86-5,15.08,15.08,0,0,0-5.55-3.07H745.49V473h35v3.17h-8.41a15.54,15.54,0,0,1,4.68,3.78,19.09,19.09,0,0,1,3.13,5.27,16.32,16.32,0,0,1,1.14,6,10.54,10.54,0,0,1-1,4.9,8.45,8.45,0,0,1-3,3.24,13.4,13.4,0,0,1-4.85,1.79,36.2,36.2,0,0,1-6.59.54Z" fill="#fff"/>
      <path d="M746.91,540.75c-.09-.22-.32-.67-.68-1.35a13.15,13.15,0,0,1-1.42-6,8.15,8.15,0,0,1,.72-3.41,5.74,5.74,0,0,1,2.14-2.53,6.11,6.11,0,0,1,3.46-1h26.64v-4.93h2.77v4.93h12v3.38h-12v8.17h-2.77v-8.17H751.93a3.86,3.86,0,0,0-3,1.42,4.76,4.76,0,0,0-1,3,8.65,8.65,0,0,0,.71,3.65,14.44,14.44,0,0,0,.91,1.82Z" fill="#fff"/>
      <path d="M744.81,608.23a14.16,14.16,0,0,1,2.39-8.08,19.5,19.5,0,0,1,5.82-5.7H731.1v-3.38h49.44v3.11h-7.06a16.94,16.94,0,0,1,5.48,5.74,14.54,14.54,0,0,1,2.12,7.56,15,15,0,0,1-1.51,6.76,17.17,17.17,0,0,1-4.11,5.3,19.17,19.17,0,0,1-5.82,3.51,18.52,18.52,0,0,1-6.73,1.25,20.15,20.15,0,0,1-9-2,16.9,16.9,0,0,1-6.63-5.64A14.42,14.42,0,0,1,744.81,608.23Zm3-.81a12,12,0,0,0,1.28,5.57,13.21,13.21,0,0,0,3.43,4.22,16,16,0,0,0,4.84,2.7,16.5,16.5,0,0,0,5.51,1,15.43,15.43,0,0,0,5.75-1.08,15.59,15.59,0,0,0,4.81-3,15,15,0,0,0,3.33-4.46,12.29,12.29,0,0,0,1.24-5.5,11.39,11.39,0,0,0-.74-3.89,15.36,15.36,0,0,0-2.08-3.91,13.36,13.36,0,0,0-3.06-3.08,8.14,8.14,0,0,0-3.53-1.48h-11.5a18.77,18.77,0,0,0-4.67,3.14,14.34,14.34,0,0,0-3.36,4.49A12.09,12.09,0,0,0,747.85,607.42Z" fill="#fff"/>
      <path d="M794.79,646.18v3.45H752.2a4.45,4.45,0,0,0-3.36,1,3.76,3.76,0,0,0-.92,2.64,13.18,13.18,0,0,0,.2,2.22,11.64,11.64,0,0,0,.54,2l-2.77.68a22.48,22.48,0,0,1-.74-2.84,15.6,15.6,0,0,1-.34-2.91,6.13,6.13,0,0,1,1.73-4.55,6.33,6.33,0,0,1,4.66-1.73Z" fill="#fff"/>
      <path d="M755.58,674a8.44,8.44,0,0,1,5.49,1.89,12.52,12.52,0,0,1,3.64,5.2,20.71,20.71,0,0,1,1.31,7.63,35.48,35.48,0,0,1-.47,5.61,29.71,29.71,0,0,1-1.29,5.2h3.31a10.61,10.61,0,0,0,7.72-2.8,10.31,10.31,0,0,0,2.89-7.74,15.36,15.36,0,0,0-1.08-5.47,28.2,28.2,0,0,0-3.11-5.8l2.43-1.42A32.08,32.08,0,0,1,779.9,683a18.33,18.33,0,0,1,1.18,6.38q0,6.28-3.7,9.93t-10.09,3.65H749.94a1.72,1.72,0,0,0-1.21.37,1.63,1.63,0,0,0-.47,1.11h-2.77a8.28,8.28,0,0,1-.07-1v-.67a3.14,3.14,0,0,1,1.08-2,3.38,3.38,0,0,1,2-.77h2.77a16.32,16.32,0,0,1-4.73-6.25,19.67,19.67,0,0,1-1.69-8,12.49,12.49,0,0,1,1.42-6,10.65,10.65,0,0,1,3.87-4.19A10.23,10.23,0,0,1,755.58,674Zm-2.89,24.18a7.71,7.71,0,0,0,1.68,1,3.83,3.83,0,0,0,1.48.34h5.79a26.87,26.87,0,0,0,1.41-5.06,31.1,31.1,0,0,0,.47-5.41,15.68,15.68,0,0,0-2.08-8.54,6.41,6.41,0,0,0-5.65-3.28,7.73,7.73,0,0,0-4.11,1.15,8.5,8.5,0,0,0-3,3.21,9.66,9.66,0,0,0-1.15,4.76,16.89,16.89,0,0,0,1.45,7A11.54,11.54,0,0,0,752.69,698.19Z" fill="#fff"/>
      <path d="M745.49,755.4V752H765c4.49,0,7.77-.64,9.86-1.92A6.68,6.68,0,0,0,778,744a13.12,13.12,0,0,0-1.42-5.84,15.89,15.89,0,0,0-3.86-5,15.08,15.08,0,0,0-5.55-3.07H745.49v-3.38h35v3.18h-8.41a15.24,15.24,0,0,1,4.68,3.78,18.81,18.81,0,0,1,3.13,5.27,16.29,16.29,0,0,1,1.14,6,10.57,10.57,0,0,1-1,4.9,8.6,8.6,0,0,1-3,3.24,13.59,13.59,0,0,1-4.85,1.79,36.2,36.2,0,0,1-6.59.54Z" fill="#fff"/>
      <path d="M745.49,807.81v-3.38H765c4.49,0,7.77-.64,9.86-1.92a6.67,6.67,0,0,0,3.13-6.12,13.12,13.12,0,0,0-1.42-5.84,15.89,15.89,0,0,0-3.86-5,15.08,15.08,0,0,0-5.55-3.07H745.49V779.1h35v3.18h-8.41a15.24,15.24,0,0,1,4.68,3.78,19,19,0,0,1,3.13,5.27,16.29,16.29,0,0,1,1.14,6,10.54,10.54,0,0,1-1,4.9,8.6,8.6,0,0,1-3,3.24,13.59,13.59,0,0,1-4.85,1.79,36.2,36.2,0,0,1-6.59.54Z" fill="#fff"/>
      <path d="M744.81,846.44a16.34,16.34,0,0,1,1.45-6.89,17,17,0,0,1,4-5.5,18.71,18.71,0,0,1,5.85-3.65,18.94,18.94,0,0,1,7-1.32,18.37,18.37,0,0,1,9,2.23,17.67,17.67,0,0,1,6.5,6.15,16.25,16.25,0,0,1,2.45,8.78,16,16,0,0,1-2.49,8.85A18.33,18.33,0,0,1,772,861.2a18.06,18.06,0,0,1-8.92,2.26h-.81a2.55,2.55,0,0,1-.67-.07V832.6a15.65,15.65,0,0,0-7.19,2.23,14.65,14.65,0,0,0-5.08,5,12.83,12.83,0,0,0-1.85,6.72,13.41,13.41,0,0,0,1.9,6.89,10.38,10.38,0,0,0,4.86,4.52l-.81,3a11.86,11.86,0,0,1-4.46-3.21,16.11,16.11,0,0,1-3.07-5.13A17.14,17.14,0,0,1,744.81,846.44Zm19.45-14v27.76a15.92,15.92,0,0,0,7.26-2.16,14,14,0,0,0,5-5,13.57,13.57,0,0,0,0-13.54,14.17,14.17,0,0,0-5-4.93A15.92,15.92,0,0,0,764.26,832.46Z" fill="#fff"/>
      <path d="M777.57,901a13.78,13.78,0,0,0-10.13-13.24h-22V884.4h35v3.24H772a16.86,16.86,0,0,1,6,4.86,12.6,12.6,0,0,1,2.67,6.42c0,.45.07.86.07,1.22V901Z" fill="#fff"/>
    </g>
  </g>
</svg>
