<svg id="Livello_1" data-name="Livello 1" xmlns="http://www.w3.org/2000/svg" viewBox="0 0 1080 1080">
  <g>
    <g>
      <g>
        <path d="M329.92,337.19a84.47,84.47,0,0,0,113.16,79c-1,0-1.92.06-2.88.07a79.58,79.58,0,0,1-.71-159.16c1,0,1.93,0,2.88.05a84.46,84.46,0,0,0-112.45,80Z"/>
        <path d="M432,273.81a53,53,0,0,0-48.31,71.8c0-.6-.06-1.2-.07-1.8a49.9,49.9,0,1,1,99.77-2.18c0,.61,0,1.21,0,1.82A53,53,0,0,0,432,273.81Z"/>
        <path d="M654.65,403.37c-4.46-5.44-20.61-23.8-45.19-29.46-12.29-2.94-26.69-2.72-42.75,1.33-16.07,3.85-33.8,11.55-52.75,18.92-37.91,16.71-67,16.9-88.7,5.62-21.72-10.6-30.86-24.3-38.82-36.57-4.51-6.95,6.8,8.68,32.77,17.8,13,4.72,28.51,5.95,45.46,2.21,17-3.41,35.34-11.78,54.11-18.67s37-13.07,53.84-13.36a76.63,76.63,0,0,1,44.91,12.95C643.1,380.76,658.46,409.46,654.65,403.37Z"/>
        <path d="M455.07,335.1a23.35,23.35,0,0,0-23.36,23.35,23.35,23.35,0,0,0-23.35-23.35,23.36,23.36,0,0,0,23.35-23.36A23.36,23.36,0,0,0,455.07,335.1Z" fill="#8e94f2"/>
      </g>
      <g>
        <path d="M166.41,718.67H143.05V440.5h22.82l91.82,172q2.85,5.56,6.38,5.57c2.18,0,4.21-1.95,6.11-5.84L350.59,440.5h25.54V718.67H352.77V470.79a12.83,12.83,0,0,0-1-5.5c-.63-1.31-1.44-2-2.44-2-1.54,0-3.08,1.5-4.62,4.48q-2.17,3.94-24,50.46T278.2,609.33l-20.78,44.55q-95.49-179.14-99.7-186.08c-1.54-3-3.17-4.48-4.89-4.48q-1.5,0-2.37,2a12.57,12.57,0,0,0-.75,5.43Z"/>
        <path d="M420.54,718.67V440.5h22.28V718.67Z"/>
        <path d="M487.23,718.67V440.5H615.18a116,116,0,0,1,27.1,3,83.47,83.47,0,0,1,21.18,7.88A73,73,0,0,1,679.08,463a67.19,67.19,0,0,1,11.07,13.86,84.71,84.71,0,0,1,7,15.07,82.06,82.06,0,0,1,3.8,14.74,88.74,88.74,0,0,1,1,13.18,87.29,87.29,0,0,1-1,13.1,80.81,80.81,0,0,1-3.8,14.6,82.85,82.85,0,0,1-7,14.94,68.22,68.22,0,0,1-11.07,13.79,73,73,0,0,1-15.62,11.61,85.37,85.37,0,0,1-21.18,8,117.84,117.84,0,0,1-27.1,3.19h-8a14.86,14.86,0,0,0-4.49.48c-.9.31-1.27.81-1.08,1.49a6,6,0,0,0,1.56,2.38,42,42,0,0,0,4,3.53,124.43,124.43,0,0,1,15.21,14.67q8.28,9.24,14.46,17.25t17.86,23.63c.46.64.84,1.16,1.16,1.56l1.15,1.5c.45.59.86,1.15,1.23,1.69a253,253,0,0,0,26.62,30.5q14.52,14.19,24.85,21H678.34a91.62,91.62,0,0,1-17.12-14.06,222.44,222.44,0,0,1-17.65-20.1q-8.43-10.8-17.39-22.82t-17.52-23q-8.55-11-16.64-20a86.62,86.62,0,0,0-16.16-14.33Q567.78,599,561,599H536.13v-5.57h54.6q41.16,0,63-19.49t21.8-54.12q0-34.65-21.8-54.2t-63-19.56H523.91q-8.16,0-11.41,3.4t-3.26,14.12l.27,255.08Z"/>
        <path d="M745.3,718.67H720.85l94.81-265.13-5.84-13H834.4l124,278.17H934l-20.38-45.36q-6.51-14.67-21.39-26.15a108.83,108.83,0,0,0-32.12-17.25,104.62,104.62,0,0,0-33.28-5.77q-27.57,0-51.47,17.25-4.49,3.25-8.9,10.8a60.7,60.7,0,0,0-6.32,14.46Zm30.29-105.4q-2,7.47,1.49,7.47c1.18,0,3.21-.72,6.11-2.17a72.08,72.08,0,0,1,35.32-9,97.72,97.72,0,0,1,38.1,8.08,147.48,147.48,0,0,1,35.92,21.66c3.17,2.63,5.16,3.62,6,3s.36-2.81-1.36-6.52L825.43,475q-2.45-5.83-5.29-5.84c-2,0-3.67,2.22-5,6.66Z"/>
      </g>
    </g>
    <g>
      <path d="M310,797.63v2.81H281.09V757.12h28.32v2.8h-25.2v17h22v2.68h-22v18Z"/>
      <path d="M338,800.44l-13.25-31.67H328l11.65,28.44,11.72-28.44h3.05L341.2,800.44Z"/>
      <path d="M385.07,801.05a14.82,14.82,0,0,1-6.22-1.31,15.34,15.34,0,0,1-5-3.58,17.2,17.2,0,0,1-4.48-11.65,16.59,16.59,0,0,1,2-8.14A15.87,15.87,0,0,1,377,770.5a14.64,14.64,0,0,1,7.94-2.22,14.38,14.38,0,0,1,8,2.25,16.57,16.57,0,0,1,7.57,14v.73a2.56,2.56,0,0,1-.07.61H372.56a14.18,14.18,0,0,0,2,6.5,13.3,13.3,0,0,0,4.55,4.58,11.6,11.6,0,0,0,6.07,1.67,12.18,12.18,0,0,0,6.23-1.71,9.39,9.39,0,0,0,4.08-4.39l2.69.73a10.82,10.82,0,0,1-2.9,4,14.68,14.68,0,0,1-4.64,2.77A15.63,15.63,0,0,1,385.07,801.05Zm-12.63-17.57h25.08a14.49,14.49,0,0,0-2-6.56,12.68,12.68,0,0,0-4.48-4.49,11.78,11.78,0,0,0-6.13-1.64,11.6,11.6,0,0,0-6.1,1.64,12.71,12.71,0,0,0-4.46,4.49A14.36,14.36,0,0,0,372.44,783.48Z"/>
      <path d="M445.29,800.44h-3.05V782.82q0-6.08-1.74-8.9a6,6,0,0,0-5.52-2.83,11.86,11.86,0,0,0-5.28,1.28,14.16,14.16,0,0,0-4.51,3.49,13.74,13.74,0,0,0-2.78,5v19.57h-3.05V768.77h2.87v7.6a13.93,13.93,0,0,1,3.42-4.23,17.16,17.16,0,0,1,4.76-2.82,14.6,14.6,0,0,1,5.43-1,9.44,9.44,0,0,1,4.42,1,7.59,7.59,0,0,1,2.93,2.7,12.35,12.35,0,0,1,1.62,4.38,33.18,33.18,0,0,1,.48,6Z"/>
      <path d="M480.56,799.16c-.2.08-.61.28-1.22.61a12,12,0,0,1-5.43,1.28,7.58,7.58,0,0,1-3.08-.64,5.28,5.28,0,0,1-2.29-1.94,5.53,5.53,0,0,1-.85-3.13V771.27h-4.46v-2.5h4.46V757.91h3.05v10.86h7.38v2.5h-7.38v23.35a3.47,3.47,0,0,0,1.28,2.67,4.24,4.24,0,0,0,2.68.89,7.87,7.87,0,0,0,3.3-.64,16.61,16.61,0,0,0,1.65-.82Z"/>
      <path d="M541.52,801.05a12.71,12.71,0,0,1-7.29-2.16,17.58,17.58,0,0,1-5.16-5.26v19.81H526V768.77h2.81v6.38A15.46,15.46,0,0,1,534,770.2a13.21,13.21,0,0,1,6.84-1.92,13.53,13.53,0,0,1,6.1,1.37,15.41,15.41,0,0,1,4.79,3.71,17.51,17.51,0,0,1,3.17,5.26A16.73,16.73,0,0,1,556,784.7a18.17,18.17,0,0,1-1.83,8.11,15.21,15.21,0,0,1-5.1,6A13,13,0,0,1,541.52,801.05Zm-.73-2.75a10.77,10.77,0,0,0,5-1.15,12,12,0,0,0,3.81-3.1,14.29,14.29,0,0,0,2.44-4.37,14.91,14.91,0,0,0,.86-5,14.07,14.07,0,0,0-3.69-9.54,13.81,13.81,0,0,0-4-3,11.11,11.11,0,0,0-5-1.12,10.29,10.29,0,0,0-3.51.67,14,14,0,0,0-3.54,1.88,12,12,0,0,0-2.78,2.76,7.42,7.42,0,0,0-1.34,3.19v10.4a17.47,17.47,0,0,0,2.84,4.22,13.36,13.36,0,0,0,4.05,3A11,11,0,0,0,540.79,798.3Z"/>
      <path d="M575.81,755.9h3.11v38.48a4,4,0,0,0,.92,3,3.41,3.41,0,0,0,2.38.82,11.72,11.72,0,0,0,2-.18,9.32,9.32,0,0,0,1.83-.49l.61,2.5a19.24,19.24,0,0,1-2.56.68,13.92,13.92,0,0,1-2.63.3,5.54,5.54,0,0,1-4.11-1.56,5.72,5.72,0,0,1-1.56-4.21Z"/>
      <path d="M601,791.32a7.61,7.61,0,0,1,1.71-5,11.16,11.16,0,0,1,4.69-3.28,18.68,18.68,0,0,1,6.9-1.19,30.87,30.87,0,0,1,5.06.43,26.7,26.7,0,0,1,4.7,1.16v-3a9.58,9.58,0,0,0-2.53-7,9.29,9.29,0,0,0-7-2.61,13.88,13.88,0,0,0-4.94,1,26,26,0,0,0-5.25,2.81l-1.28-2.2a29.26,29.26,0,0,1,6-3.14,16.65,16.65,0,0,1,5.77-1.07,12,12,0,0,1,9,3.35q3.29,3.33,3.29,9.11v15.68a1.52,1.52,0,0,0,.34,1.09,1.46,1.46,0,0,0,1,.43v2.5a8.91,8.91,0,0,1-.92.06h-.61a2.81,2.81,0,0,1-1.8-1,3,3,0,0,1-.7-1.77v-2.51a14.81,14.81,0,0,1-5.65,4.28,17.73,17.73,0,0,1-7.23,1.52,11.39,11.39,0,0,1-5.4-1.28,9.72,9.72,0,0,1-3.78-3.49A9.21,9.21,0,0,1,601,791.32Zm21.84,2.61a6.77,6.77,0,0,0,.92-1.52,3.51,3.51,0,0,0,.3-1.33v-5.23a24.92,24.92,0,0,0-4.57-1.28,28.14,28.14,0,0,0-4.89-.42,14.26,14.26,0,0,0-7.72,1.88,5.79,5.79,0,0,0-3,5.11,7,7,0,0,0,1,3.7,7.66,7.66,0,0,0,2.9,2.74,8.71,8.71,0,0,0,4.3,1,15.06,15.06,0,0,0,6.32-1.31A10.37,10.37,0,0,0,622.79,793.93Z"/>
      <path d="M674.47,800.44h-3.05V782.82q0-6.08-1.74-8.9a6,6,0,0,0-5.52-2.83,11.86,11.86,0,0,0-5.28,1.28,14.16,14.16,0,0,0-4.51,3.49,13.74,13.74,0,0,0-2.78,5v19.57h-3.05V768.77h2.87v7.6a13.93,13.93,0,0,1,3.42-4.23,17.11,17.11,0,0,1,4.75-2.82,14.69,14.69,0,0,1,5.44-1,9.44,9.44,0,0,1,4.42,1,7.59,7.59,0,0,1,2.93,2.7,12.35,12.35,0,0,1,1.62,4.38,33.18,33.18,0,0,1,.48,6Z"/>
      <path d="M721.82,800.44h-3.05V782.82q0-6.08-1.74-8.9a6,6,0,0,0-5.52-2.83,11.86,11.86,0,0,0-5.28,1.28,14.16,14.16,0,0,0-4.51,3.49,13.74,13.74,0,0,0-2.78,5v19.57h-3.05V768.77h2.87v7.6a14,14,0,0,1,3.41-4.23,17.31,17.31,0,0,1,4.76-2.82,14.68,14.68,0,0,1,5.43-1,9.45,9.45,0,0,1,4.43,1,7.66,7.66,0,0,1,2.93,2.7,12.16,12.16,0,0,1,1.61,4.38,32.23,32.23,0,0,1,.49,6Z"/>
      <path d="M756.72,801.05a14.85,14.85,0,0,1-6.22-1.31,15.3,15.3,0,0,1-5-3.58,16.76,16.76,0,0,1-3.3-5.29,17.23,17.23,0,0,1-1.19-6.36,16.59,16.59,0,0,1,2-8.14,16,16,0,0,1,5.56-5.87,14.61,14.61,0,0,1,7.93-2.22,14.38,14.38,0,0,1,8,2.25,16.46,16.46,0,0,1,5.52,5.93,16.27,16.27,0,0,1,2.05,8.06v.73a2.62,2.62,0,0,1-.06.61H744.21a14.31,14.31,0,0,0,2,6.5,13.27,13.27,0,0,0,4.54,4.58,11.6,11.6,0,0,0,6.07,1.67,12.15,12.15,0,0,0,6.23-1.71,9.47,9.47,0,0,0,4.09-4.39l2.68.73a10.82,10.82,0,0,1-2.9,4,14.63,14.63,0,0,1-4.63,2.77A15.65,15.65,0,0,1,756.72,801.05Zm-12.63-17.57h25.08a14.36,14.36,0,0,0-1.95-6.56,12.71,12.71,0,0,0-4.49-4.49,11.75,11.75,0,0,0-6.13-1.64,11.6,11.6,0,0,0-6.1,1.64,12.79,12.79,0,0,0-4.46,4.49A14.49,14.49,0,0,0,744.09,783.48Z"/>
      <path d="M806,771.46a12.7,12.7,0,0,0-7.47,2.53,12.55,12.55,0,0,0-4.48,6.62v19.83H791V768.77h2.93v7.75a15.16,15.16,0,0,1,4.4-5.46,11.28,11.28,0,0,1,5.79-2.41c.41,0,.78-.06,1.1-.06H806Z"/>
    </g>
  </g>
</svg>
